<?xml version="1.0" standalone="no"?>
<!DOCTYPE svg PUBLIC "-//W3C//DTD SVG 20010904//EN"
 "http://www.w3.org/TR/2001/REC-SVG-20010904/DTD/svg10.dtd">
<svg version="1.0" xmlns="http://www.w3.org/2000/svg"
 width="450.000000pt" height="450.000000pt" viewBox="0 0 450.000000 450.000000"
 preserveAspectRatio="xMidYMid meet">
<metadata>
Created by potrace 1.14, written by Peter Selinger 2001-2017
</metadata>
<g transform="translate(0.000000,450.000000) scale(0.100000,-0.100000)"
fill="#000000" stroke="none">
<path d="M2089 4496 c-2 -2 -35 -6 -74 -10 -38 -3 -80 -8 -91 -10 -12 -2 -39
-7 -60 -10 -41 -6 -113 -22 -179 -39 -50 -13 -42 -11 -95 -27 -25 -7 -48 -14
-52 -16 -5 -1 -10 -3 -13 -4 -3 -1 -8 -3 -12 -5 -5 -1 -16 -5 -25 -8 -23 -9
-41 -14 -51 -15 -4 -1 -20 -8 -35 -15 -49 -26 -127 -61 -132 -60 -3 1 -12 -5
-21 -13 -9 -8 -19 -11 -22 -7 -4 3 -7 1 -7 -6 0 -7 -4 -10 -9 -6 -5 3 -12 1
-16 -5 -3 -5 -31 -22 -61 -37 -30 -14 -54 -30 -54 -35 0 -4 -5 -8 -10 -8 -15
0 -130 -76 -171 -112 -10 -10 -22 -18 -27 -18 -4 0 -15 -8 -24 -17 -9 -10 -33
-31 -53 -48 -70 -56 -212 -201 -297 -304 -30 -36 -78 -102 -78 -107 0 -2 -9
-15 -21 -27 -11 -12 -30 -38 -41 -57 -10 -19 -30 -53 -43 -75 -156 -259 -258
-563 -299 -885 -13 -97 -14 -420 -3 -510 12 -93 19 -138 27 -170 5 -19 12 -52
15 -73 4 -22 13 -56 20 -78 8 -21 12 -39 9 -39 -2 0 3 -16 11 -36 8 -20 15
-42 15 -49 0 -7 8 -30 17 -51 9 -22 18 -42 19 -46 1 -5 3 -10 4 -13 1 -3 3 -8
5 -12 3 -13 24 -61 47 -111 12 -26 21 -50 20 -54 -1 -5 3 -8 9 -8 5 0 8 -4 5
-9 -3 -5 1 -14 9 -21 8 -7 12 -16 9 -21 -3 -5 -1 -9 3 -9 5 0 15 -16 22 -35 7
-19 17 -35 22 -35 5 0 9 -5 9 -12 0 -13 61 -111 72 -116 5 -2 8 -10 8 -18 0
-8 5 -14 10 -14 6 0 10 -5 10 -10 0 -11 10 -24 43 -61 9 -10 17 -22 17 -25 0
-3 6 -11 12 -19 7 -7 29 -32 48 -55 41 -50 190 -200 246 -250 56 -49 162 -129
220 -167 10 -7 37 -24 58 -39 71 -47 259 -142 362 -182 182 -73 417 -132 591
-149 143 -14 482 -8 569 11 12 2 38 7 57 10 33 5 182 38 216 47 7 2 56 19 110
37 53 18 104 34 115 37 10 2 24 9 32 16 8 6 14 9 14 6 0 -3 26 7 58 23 31 15
60 27 63 27 4 -1 16 6 26 16 11 9 22 15 25 12 3 -3 11 1 18 10 7 8 17 15 22
15 10 0 157 87 168 100 3 3 12 10 21 15 40 25 97 66 124 89 17 14 45 38 64 53
47 38 195 188 256 258 194 224 357 526 444 826 37 129 68 279 78 384 15 153 9
439 -12 570 -2 17 -7 44 -9 60 -9 59 -26 139 -38 179 -6 23 -12 43 -13 46 -1
3 -7 25 -15 50 -7 25 -14 50 -16 55 -8 35 -64 167 -111 265 -48 99 -174 315
-193 330 -3 3 -17 21 -30 40 -13 19 -29 40 -35 46 -5 6 -26 31 -45 55 -42 52
-215 225 -259 259 -18 14 -46 37 -63 52 -60 53 -235 166 -348 226 -243 128
-493 207 -785 248 -38 5 -422 14 -426 10z"/>
</g>
</svg>
